# xmcd CD database file
#
# Track frame offsets:
#	150
#	34596
#	59019
#	94457
#	133920
#	168884
#	200910
#	226876
#
# Disc length: 3443 seconds
#
# Revision: 2
# Processed by: cddbd v1.5.1PL0 Copyright (c) Steve Scherf et al.
# Submitted via: CDex 1.51
#
DISCID=730d7108
DTITLE=Abacus - Fire Behind Bars
DYEAR=2001
DGENRE=Jazz
TTITLE0=Avalanche Pt. 1
TTITLE1=Nightflight
TTITLE2=Rien Ne Va Plus
TTITLE3=Don't Look Back
TTITLE4=Helping-Hand-Song
TTITLE5=Loser
TTITLE6=Fire Behind Bars
TTITLE7=Avalanche Pt. 2
EXTD=YEAR: 2001
EXTT0=
EXTT1=
EXTT2=
EXTT3=
EXTT4=
EXTT5=
EXTT6=
EXTT7=
PLAYORDER=
